# xmcd CD database file
#
# Track frame offsets:
#	150
#	16357
#	33233
#	50639
#	63592
#	81030
#	98209
#	116115
#	127440
#	144645
#	160768
#	175970
#
# Disc length: 2562 seconds
#
# Revision: 0
# Processed by: cddbd v1.5.2PL0 Copyright (c) Steve Scherf et al.
# Submitted via: CDex 1.51
#
DISCID=ab0a000c
DTITLE=Various Artist - Best of Megahits 25
DYEAR=1900
DGENRE=Blues
TTITLE0=K naan - Wavin' Flag
TTITLE1=Madcon - Glow
TTITLE2=Katy Perry - Tennage Dream
TTITLE3=Miley Cyrus - Can't Be Tamed
TTITLE4=Green Day - Last of the American Girls
TTITLE5=Andrea Berg - Ich liebe das Leben
TTITLE6=Ich und Ich - Universum
TTITLE7=Trude Heer - Ich will keine Schokolade
TTITLE8=Unheilig - Geboren um zu leben
TTITLE9=Culcha Candela - Somma im Kiez
TTITLE10=Uncle Kracker - Smile
TTITLE11=Train - Hey, Soul Sister
EXTD=
EXTT0=
EXTT1=
EXTT2=
EXTT3=
EXTT4=
EXTT5=
EXTT6=
EXTT7=
EXTT8=
EXTT9=
EXTT10=
EXTT11=
PLAYORDER=
